<?xml version="1.0" encoding="UTF-8"?>
<svg version="1.1" xmlns="http://www.w3.org/2000/svg" width="512" height="512">
<path d="M0 0 C57.585 -0.061875 115.17 -0.12375 174.5 -0.1875 C201.76850586 -0.22846802 201.76850586 -0.22846802 229.58789062 -0.27026367 C251.79589844 -0.28381348 251.79589844 -0.28381348 262.19421387 -0.28633118 C269.45270716 -0.28912478 276.7111309 -0.30011238 283.96960449 -0.31672668 C292.3488315 -0.33587785 300.72799197 -0.34449496 309.107241 -0.34033485 C313.38984499 -0.33853441 317.67230044 -0.34130748 321.9548769 -0.35764539 C325.83753696 -0.37236681 329.71994503 -0.37289178 333.60261726 -0.36270332 C335.6506846 -0.36085379 337.69874956 -0.37367202 339.74677277 -0.38724232 C349.14991896 -0.3424891 357.84915724 1.03998592 367 3 C367.78786974 3.14547093 368.57573949 3.29094185 369.38748407 3.44082099 C375.41208546 4.67239407 380.55690376 7.66641125 385.875 10.625 C386.8537207 11.16552002 387.83244141 11.70604004 388.84082031 12.26293945 C395.48778985 15.99866095 401.37089675 19.83646168 407 25 C407.80953125 25.6703125 408.6190625 26.340625 409.453125 27.03125 C428.75266639 43.37073903 441.18168259 67.98431541 444 93 C445.58700645 123.19129803 439.4288127 151.80316116 419 175 C418.32453125 175.81855469 417.6490625 176.63710937 416.953125 177.48046875 C406.08790856 190.2689078 392.82673143 197.67961029 378 205 C378.53665283 205.13462646 379.07330566 205.26925293 379.6262207 205.40795898 C404.41431448 211.7477528 424.69385722 221.95169022 443 240 C443.79148437 240.77859375 444.58296875 241.5571875 445.3984375 242.359375 C466.97755137 264.92279932 474.53118629 294.01300684 474.20703125 324.46875 C473.66030046 347.94798631 464.27317141 371.19213205 449 389 C448.31164062 389.80953125 447.62328125 390.6190625 446.9140625 391.453125 C426.23120507 415.11141105 400.61030878 426.89828187 370 432 C324.13 432 278.26 432 231 432 C231 338.28 231 244.56 231 148 C267.63 148 304.26 148 342 148 C342 128.86 342 109.72 342 90 C249.27 90 156.54 90 61 90 C61 109.14 61 128.28 61 148 C98.29 148 135.58 148 174 148 C174 241.72 174 335.44 174 432 C116.58 432 59.16 432 0 432 C0 289.44 0 146.88 0 0 Z " fill="#000000" transform="translate(29,41)"/>
<path d="" fill="#808080" transform="translate(0,0)"/>
</svg>
